<?xml version="1.0" encoding="utf-8" ?>
<!DOCTYPE svg PUBLIC "-//W3C//DTD SVG 1.1//EN" "http://www.w3.org/Graphics/SVG/1.1/DTD/svg11.dtd">
<svg xmlns="http://www.w3.org/2000/svg" id="a8648378-84b7-4f0f-afe0-1ff9ceb1e60a" data-name="Layer 1" width="300" height="55.655" viewBox="0 0 300 55.655"><defs><style>.ff8db9c1-4581-4e66-ab8d-de0287345130{fill:#2f7d31;}</style></defs><path class="ff8db9c1-4581-4e66-ab8d-de0287345130" d="M55.177,35.771V7.708H69.848v5.208h-9.33V18.3h1.164a17.994,17.994,0,0,1,5.8.782,7.511,7.511,0,0,1,3.749,2.948,8.777,8.777,0,0,1,1.5,5.122A8.547,8.547,0,0,1,71.6,31.832a8.538,8.538,0,0,1-3.1,2.843,11.347,11.347,0,0,1-5.466,1.1Zm5.341-12.706v7.612h1.336q3.662,0,4.636-.953a3.442,3.442,0,0,0,.973-2.576q0-4.083-5.838-4.083Z" transform="translate(0 -0.173)"/><path class="ff8db9c1-4581-4e66-ab8d-de0287345130" d="M77.4,7.708h5.666a18.648,18.648,0,0,1,6.63.849A6.744,6.744,0,0,1,92.9,11.3a8.482,8.482,0,0,1,1.174,4.551,7.637,7.637,0,0,1-1.536,4.883,7.963,7.963,0,0,1-4.169,2.709,23.929,23.929,0,0,1-5.627.439V35.771H77.4Zm5.342,10.97h1.7a9.188,9.188,0,0,0,2.785-.287,2.485,2.485,0,0,0,1.231-.948,2.781,2.781,0,0,0,.448-1.6,2.557,2.557,0,0,0-1.259-2.374,7.181,7.181,0,0,0-3.4-.555H82.744Z" transform="translate(0 -0.173)"/><path class="ff8db9c1-4581-4e66-ab8d-de0287345130" d="M119.735,7.708V35.771h-5.342V18.2l-10.465,17.57H99.284V7.708h5.341V25.851L115.232,7.708Z" transform="translate(0 -0.173)"/><path class="ff8db9c1-4581-4e66-ab8d-de0287345130" d="M123.38,7.708h15.51v5.265h-5.113v22.8h-5.418v-22.8H123.38Z" transform="translate(0 -0.173)"/><path class="ff8db9c1-4581-4e66-ab8d-de0287345130" d="M151.114,7.708h5.417l10.793,28.063h-5.551l-2.2-5.78H148.126l-2.283,5.78h-5.551Zm2.742,7.44-3.765,9.635H157.6Z" transform="translate(0 -0.173)"/><path class="ff8db9c1-4581-4e66-ab8d-de0287345130" d="M171.436,7.708h5.417V18.3h9.367V7.708h5.4V35.771h-5.4v-12.3h-9.367v12.3h-5.417Z" transform="translate(0 -0.173)"/><path class="ff8db9c1-4581-4e66-ab8d-de0287345130" d="M223.823,12.64,220.087,16.2a11.571,11.571,0,0,0-8.578-4.03,9.4,9.4,0,0,0-9.53,9.53,10.023,10.023,0,0,0,1.22,4.984,8.739,8.739,0,0,0,3.45,3.418,10.012,10.012,0,0,0,4.956,1.241,10.2,10.2,0,0,0,4.25-.869,15.216,15.216,0,0,0,4.232-3.16l3.621,3.779a19.9,19.9,0,0,1-5.876,4.209,16.041,16.041,0,0,1-6.314,1.173,14.533,14.533,0,0,1-10.712-4.15,14.362,14.362,0,0,1-4.169-10.635,14.555,14.555,0,0,1,1.9-7.46,14.12,14.12,0,0,1,5.437-5.246A15.336,15.336,0,0,1,211.594,7a16.174,16.174,0,0,1,12.229,5.637Zm-9.306,9.1a2.553,2.553,0,0,1-1.043-4.888,5.2,5.2,0,0,0-1.519-.226,5.114,5.114,0,1,0,5.115,5.114,5.177,5.177,0,0,0-.227-1.519A2.536,2.536,0,0,1,214.517,21.74Z" transform="translate(0 -0.173)"/><path class="ff8db9c1-4581-4e66-ab8d-de0287345130" d="M228.535,7.708h5.4v9.675l7.619-9.675h6.413l-9.8,12.525,10.752,15.538h-6.333L233.934,23.3V35.771h-5.4Z" transform="translate(0 -0.173)"/><path class="ff8db9c1-4581-4e66-ab8d-de0287345130" d="M273.158,7.708V35.771h-5.342V18.2l-10.465,17.57h-4.644V7.708h5.342V25.851L268.655,7.708Z" transform="translate(0 -0.173)"/><path class="ff8db9c1-4581-4e66-ab8d-de0287345130" d="M300,7.708V35.771h-5.342V18.2l-10.465,17.57h-4.644V7.708h5.342V25.851L295.5,7.708ZM282.144.173h4.216a3.046,3.046,0,0,0,1.383,1.172,5.336,5.336,0,0,0,2.165.392,5.815,5.815,0,0,0,2.347-.458,2.834,2.834,0,0,0,1.2-1.106h4.216a5.753,5.753,0,0,1-2.319,3.891,8.928,8.928,0,0,1-5.465,1.469,10.4,10.4,0,0,1-3.959-.658A6.257,6.257,0,0,1,283.365,3,5.891,5.891,0,0,1,282.144.173Z" transform="translate(0 -0.173)"/><path class="ff8db9c1-4581-4e66-ab8d-de0287345130" d="M61.2,42.884a5.472,5.472,0,0,1,4.021,1.693A5.633,5.633,0,0,1,66.9,48.7a5.572,5.572,0,0,1-1.66,4.083,5.753,5.753,0,0,1-8.151-.045A5.79,5.79,0,0,1,61.2,42.884Zm-.023,2.053A3.46,3.46,0,0,0,58.6,46a3.7,3.7,0,0,0-1.042,2.7A3.522,3.522,0,0,0,58.873,51.6a3.591,3.591,0,0,0,2.339.832,3.42,3.42,0,0,0,2.542-1.078,3.89,3.89,0,0,0-.007-5.322A3.448,3.448,0,0,0,61.174,44.937Z" transform="translate(0 -0.173)"/><path class="ff8db9c1-4581-4e66-ab8d-de0287345130" d="M74.7,43.161v1.424h.464q3.97,0,3.97,3.273a3.643,3.643,0,0,1-.31,1.577,2.744,2.744,0,0,1-.914,1.071,3.322,3.322,0,0,1-1.244.554,10.742,10.742,0,0,1-1.966.131V54.18H72.586V51.191a7.776,7.776,0,0,1-2.274-.277,2.816,2.816,0,0,1-1.457-1.052,3.2,3.2,0,0,1-.569-1.945,3.532,3.532,0,0,1,.457-1.856,2.73,2.73,0,0,1,1.292-1.117,6.812,6.812,0,0,1,2.551-.359V43.161Zm-2.112,3.356H72.1a2.181,2.181,0,0,0-1.469.356,1.381,1.381,0,0,0-.366,1.037,1.254,1.254,0,0,0,.446,1.109,2.3,2.3,0,0,0,1.306.307h.57Zm2.112,0v2.809h.689a1.855,1.855,0,0,0,1.408-.4,1.519,1.519,0,0,0,.344-1.034,1.375,1.375,0,0,0-.363-1.015,2.125,2.125,0,0,0-1.464-.363Z" transform="translate(0 -0.173)"/><path class="ff8db9c1-4581-4e66-ab8d-de0287345130" d="M79.97,43.161h6.09v2.068H84.053V54.18H81.925V45.229H79.97Z" transform="translate(0 -0.173)"/><path class="ff8db9c1-4581-4e66-ab8d-de0287345130" d="M91.166,43.161h2.127L97.531,54.18h-2.18l-.862-2.27h-4.5l-.9,2.27h-2.18Zm1.077,2.922-1.479,3.782h2.948Z" transform="translate(0 -0.173)"/><path class="ff8db9c1-4581-4e66-ab8d-de0287345130" d="M106.591,54.18l-3.049-8.1-3.1,8.1H98.214l4.253-11.019h2.126l4.238,11.019Z" transform="translate(0 -0.173)"/><path class="ff8db9c1-4581-4e66-ab8d-de0287345130" d="M110.4,54.18V43.161h2.1v4.157h.458a6.73,6.73,0,0,1,2.183.3,3.205,3.205,0,0,1,1.509,1.153,3.627,3.627,0,0,1,.091,3.967,3.154,3.154,0,0,1-1.27,1.112,4.924,4.924,0,0,1-1.981.326Zm2.1-4.989V52.18h.525a3.231,3.231,0,0,0,1.746-.322,1.274,1.274,0,0,0,.441-1.1q0-1.566-2.277-1.566Z" transform="translate(0 -0.173)"/><path class="ff8db9c1-4581-4e66-ab8d-de0287345130" d="M120.5,43.161h2.043l2.554,7.685,2.577-7.685h2.043l1.848,11.019h-2.028l-1.182-6.959-2.341,6.959h-1.848l-2.32-6.959-1.209,6.959h-2.045Z" transform="translate(0 -0.173)"/><path class="ff8db9c1-4581-4e66-ab8d-de0287345130" d="M138.741,42.884a5.472,5.472,0,0,1,4.021,1.693,5.632,5.632,0,0,1,1.682,4.127,5.571,5.571,0,0,1-1.659,4.083,5.753,5.753,0,0,1-8.151-.045,5.79,5.79,0,0,1,4.107-9.858Zm-.023,2.053A3.458,3.458,0,0,0,136.147,46a3.7,3.7,0,0,0-1.042,2.7,3.522,3.522,0,0,0,1.312,2.891,3.591,3.591,0,0,0,2.339.832,3.42,3.42,0,0,0,2.542-1.078,3.89,3.89,0,0,0-.007-5.322A3.449,3.449,0,0,0,138.718,44.937Z" transform="translate(0 -0.173)"/><path class="ff8db9c1-4581-4e66-ab8d-de0287345130" d="M153.861,54.18l-3.049-8.1-3.1,8.1h-2.225l4.253-11.019h2.127L156.1,54.18Z" transform="translate(0 -0.173)"/><path class="ff8db9c1-4581-4e66-ab8d-de0287345130" d="M162.881,42.884a5.472,5.472,0,0,1,4.021,1.693,5.632,5.632,0,0,1,1.682,4.127,5.571,5.571,0,0,1-1.659,4.083,5.753,5.753,0,0,1-8.151-.045,5.79,5.79,0,0,1,4.107-9.858Zm-.023,2.053A3.46,3.46,0,0,0,160.287,46a3.7,3.7,0,0,0-1.042,2.7,3.522,3.522,0,0,0,1.312,2.891,3.591,3.591,0,0,0,2.339.832,3.42,3.42,0,0,0,2.542-1.078,3.89,3.89,0,0,0-.007-5.322A3.449,3.449,0,0,0,162.858,44.937Z" transform="translate(0 -0.173)"/><path class="ff8db9c1-4581-4e66-ab8d-de0287345130" d="M170.861,43.161h5.468v2.053h-3.385V54.18h-2.083Z" transform="translate(0 -0.173)"/><path class="ff8db9c1-4581-4e66-ab8d-de0287345130" d="M186.3,43.161V54.18h-2.1v-6.9l-4.11,6.9h-1.823V43.161h2.1v7.124l4.165-7.124Z" transform="translate(0 -0.173)"/><path class="ff8db9c1-4581-4e66-ab8d-de0287345130" d="M193.945,49.348h-.7A11.55,11.55,0,0,1,191,49.191a3.427,3.427,0,0,1-1.382-.669,2.777,2.777,0,0,1-.929-1.242,5.723,5.723,0,0,1-.269-1.934V43.161h2.127v2.151a2.334,2.334,0,0,0,.4,1.565,2.391,2.391,0,0,0,1.723.441h1.273V43.161h2.113V54.18h-2.113Z" transform="translate(0 -0.173)"/><path class="ff8db9c1-4581-4e66-ab8d-de0287345130" d="M198.889,43.161H204.9v2.053h-3.932v1.992H204.9v2.015h-3.932v2.9H204.9v2.06h-6.014Z" transform="translate(0 -0.173)"/><path class="ff8db9c1-4581-4e66-ab8d-de0287345130" d="M217.292,45.1l-1.466,1.4a4.543,4.543,0,0,0-3.368-1.582,3.69,3.69,0,0,0-3.742,3.741,3.933,3.933,0,0,0,.479,1.957,3.423,3.423,0,0,0,1.355,1.342,3.931,3.931,0,0,0,1.945.488,4.017,4.017,0,0,0,1.669-.341,5.993,5.993,0,0,0,1.662-1.241l1.421,1.484A7.783,7.783,0,0,1,214.94,54a6.3,6.3,0,0,1-2.479.461,5.7,5.7,0,0,1-4.206-1.63,5.636,5.636,0,0,1-1.636-4.175,5.714,5.714,0,0,1,.745-2.929,5.534,5.534,0,0,1,2.135-2.059,6.013,6.013,0,0,1,2.992-.78,6.347,6.347,0,0,1,4.8,2.214Z" transform="translate(0 -0.173)"/><path class="ff8db9c1-4581-4e66-ab8d-de0287345130" d="M219.45,43.161h2.119v3.8l2.991-3.8h2.518l-3.847,4.918,4.222,6.1h-2.487l-3.4-4.9v4.9H219.45Z" transform="translate(0 -0.173)"/><path class="ff8db9c1-4581-4e66-ab8d-de0287345130" d="M237.275,43.161V54.18h-2.1v-6.9l-4.109,6.9h-1.824V43.161h2.1v7.124l4.164-7.124Z" transform="translate(0 -0.173)"/><path class="ff8db9c1-4581-4e66-ab8d-de0287345130" d="M248.121,43.161V54.18h-2.1v-6.9l-4.109,6.9h-1.823V43.161h2.1v7.124l4.165-7.124ZM241.11,40.2h1.655a1.193,1.193,0,0,0,.543.461,2.111,2.111,0,0,0,.85.153,2.284,2.284,0,0,0,.922-.18,1.111,1.111,0,0,0,.472-.434h1.655a2.269,2.269,0,0,1-.91,1.528,3.515,3.515,0,0,1-2.147.576,4.092,4.092,0,0,1-1.554-.257,2.465,2.465,0,0,1-1.007-.738A2.316,2.316,0,0,1,241.11,40.2Z" transform="translate(0 -0.173)"/><path class="ff8db9c1-4581-4e66-ab8d-de0287345130" d="M255.535,54.18V43.161h2.127v9.131h3.693V43.161h2.119v9.131h2.24v3.535h-1.962V54.18Z" transform="translate(0 -0.173)"/><path class="ff8db9c1-4581-4e66-ab8d-de0287345130" d="M267.362,43.161h6.015v2.053h-3.933v1.992h3.933v2.015h-3.933v2.9h3.933v2.06h-6.015Z" transform="translate(0 -0.173)"/><path class="ff8db9c1-4581-4e66-ab8d-de0287345130" d="M275.631,43.161h2.128v4.157h3.677V43.161h2.12V54.18h-2.12V49.348h-3.677V54.18h-2.128Z" transform="translate(0 -0.173)"/><path class="ff8db9c1-4581-4e66-ab8d-de0287345130" d="M285.293,43.161h6.09v2.068h-2.008V54.18h-2.128V45.229h-1.954Z" transform="translate(0 -0.173)"/><path class="ff8db9c1-4581-4e66-ab8d-de0287345130" d="M293.119,43.161h2.225a7.327,7.327,0,0,1,2.6.334,2.636,2.636,0,0,1,1.257,1.079,3.32,3.32,0,0,1,.461,1.786,3,3,0,0,1-.6,1.917,3.126,3.126,0,0,1-1.637,1.064,9.415,9.415,0,0,1-2.21.172V54.18h-2.1Zm2.1,4.307h.667a3.61,3.61,0,0,0,1.093-.112.976.976,0,0,0,.484-.373,1.089,1.089,0,0,0,.176-.627,1,1,0,0,0-.5-.932,2.824,2.824,0,0,0-1.333-.217h-.592Z" transform="translate(0 -0.173)"/><path class="ff8db9c1-4581-4e66-ab8d-de0287345130" d="M.515,35.372A33.151,33.151,0,0,0,0,40.733V53.726H12.5a31.261,31.261,0,0,0,5.58-.407A38.156,38.156,0,0,1,.515,35.372Z" transform="translate(0 -0.173)"/><path class="ff8db9c1-4581-4e66-ab8d-de0287345130" d="M32.994,7.615a32.943,32.943,0,0,0-5.645.615,37.407,37.407,0,0,1,17.26,17.4,32.587,32.587,0,0,0,.391-5.4V7.615Z" transform="translate(0 -0.173)"/><path class="ff8db9c1-4581-4e66-ab8d-de0287345130" d="M12.3,7.615H0V20.223c0,18.252,14.556,33.5,32.8,33.5H45V40.733A32.823,32.823,0,0,0,12.3,7.615ZM22.646,46.608A15.708,15.708,0,1,1,38.354,30.9,15.7,15.7,0,0,1,22.646,46.608Z" transform="translate(0 -0.173)"/><path class="ff8db9c1-4581-4e66-ab8d-de0287345130" d="M26.121,30.9a3.465,3.465,0,0,1-1.414-6.632,7.061,7.061,0,0,0-2.061-.307A6.939,6.939,0,1,0,29.585,30.9a7.061,7.061,0,0,0-.307-2.061A3.442,3.442,0,0,1,26.121,30.9Z" transform="translate(0 -0.173)"/></svg>