<?xml version="1.0" encoding="utf-8" ?>
<!DOCTYPE svg PUBLIC "-//W3C//DTD SVG 1.1//EN" "http://www.w3.org/Graphics/SVG/1.1/DTD/svg11.dtd">
<svg xmlns="http://www.w3.org/2000/svg" xmlns:xlink="http://www.w3.org/1999/xlink" version="1.1" id="Layer_1" x="0px" y="0px" viewBox="0 0 200 200" style="enable-background:new 0 0 200 200;" xml:space="preserve"><path d="M143.1,116.1c-0.7-1.4-1.5-2.4-2.6-3.3c-1-0.9-2.3-1.5-3.7-1.8c-1.4-0.4-3-0.6-4.6-0.6c-1.5,0-3,0.2-4.4,0.6 c-1.4,0.4-2.7,1-3.8,1.9c-1.1,0.9-2,2-2.8,3.3c-0.7,1.4-1,3-1.1,4.9h23.9C144.1,119.2,143.8,117.5,143.1,116.1z M143.1,116.1 c-0.7-1.4-1.5-2.4-2.6-3.3c-1-0.9-2.3-1.5-3.7-1.8c-1.4-0.4-3-0.6-4.6-0.6c-1.5,0-3,0.2-4.4,0.6c-1.4,0.4-2.7,1-3.8,1.9 c-1.1,0.9-2,2-2.8,3.3c-0.7,1.4-1,3-1.1,4.9h23.9C144.1,119.2,143.8,117.5,143.1,116.1z M163.3,26.3H36.7c-5.7,0-10.3,4.6-10.3,10.3 v126.7c0,5.7,4.6,10.3,10.3,10.3h126.7c5.7,0,10.3-4.6,10.3-10.3V36.7C173.7,30.9,169.1,26.3,163.3,26.3z M129.1,57.5 c-0.1-0.4-0.3-0.7-0.6-1c-0.2-0.2-0.6-0.4-0.9-0.6c-0.3-0.1-0.7-0.1-1.1-0.1c-0.6,0-1,0.1-1.5,0.3c-0.4,0.2-0.8,0.6-1.1,1h-5.2V44.4 h15.1v4.7h-9.7v3.1c0.4-0.4,1-0.6,1.6-0.7c0.6-0.2,1.3-0.2,2.1-0.2c1,0,2,0.2,2.9,0.5c0.9,0.3,1.7,0.8,2.3,1.5 c0.7,0.6,1.2,1.4,1.5,2.4c0.4,1,0.6,2.1,0.6,3.4c0,1.2-0.2,2.4-0.6,3.4c-0.4,1-1,1.8-1.7,2.5c-0.7,0.7-1.7,1.2-2.7,1.6 c-1,0.4-2.2,0.6-3.6,0.6c-1.5,0-2.8-0.2-3.8-0.6c-1-0.4-1.9-0.9-2.5-1.5c-0.7-0.7-1.1-1.5-1.4-2.3c-0.3-0.9-0.5-1.8-0.5-2.8h5.5 c0.1,0.9,0.3,1.5,0.8,2c0.5,0.6,1.1,0.8,1.9,0.8c1,0,1.8-0.3,2.2-0.9c0.4-0.7,0.7-1.5,0.7-2.6C129.4,58.5,129.3,58,129.1,57.5z M92,151.5L76.6,127l-15.4,24.5H45.7l22.1-34.2L46.6,85.4h15.8l14.5,21.9l14.8-21.9H107l-21,31.8l22,34.3H92z M156.3,129.8h-36.1 c0,2.3,0.4,4.2,1.1,5.8c0.8,1.6,1.7,3,2.9,3.9c1.2,1,2.5,1.7,4,2.2c1.5,0.4,3,0.7,4.6,0.7c3.1,0,5.6-0.5,7.3-1.5 c1.7-1,2.9-2.3,3.5-4h11.7c-0.5,2.6-1.4,4.9-2.6,6.8c-1.3,2-2.9,3.6-4.8,5c-2,1.3-4.2,2.3-6.7,3c-2.6,0.7-5.4,1-8.4,1 c-3.4,0-6.7-0.5-9.8-1.5c-3.1-1-5.8-2.6-8.1-4.7c-2.3-2.1-4.1-4.8-5.5-8c-1.3-3.3-2-7-2-11.4v-1.9c0-4.1,0.7-7.8,2-10.8 c1.3-3.1,3-5.7,5.2-7.7s4.7-3.6,7.8-4.6c3-1,6.1-1.5,9.5-1.5c8,0,14.1,2,18.2,6.2c4.1,4.1,6.2,10.2,6.2,18V129.8z M156.3,62.4h-2.4 v4.3h-5.7v-4.3h-10v-3.9l10.3-14h5.4v13.2h2.4V62.4z M148.1,57.7v-6.9l-4.9,6.9H148.1z M140.6,112.9c-1-0.9-2.3-1.5-3.7-1.8 c-1.4-0.4-3-0.6-4.6-0.6c-1.5,0-3,0.2-4.4,0.6c-1.4,0.4-2.7,1-3.8,1.9c-1.1,0.9-2,2-2.8,3.3c-0.7,1.4-1,3-1.1,4.9h23.9 c0-2-0.3-3.7-0.9-5C142.5,114.8,141.7,113.7,140.6,112.9z M143.1,116.1c-0.7-1.4-1.5-2.4-2.6-3.3c-1-0.9-2.3-1.5-3.7-1.8 c-1.4-0.4-3-0.6-4.6-0.6c-1.5,0-3,0.2-4.4,0.6c-1.4,0.4-2.7,1-3.8,1.9c-1.1,0.9-2,2-2.8,3.3c-0.7,1.4-1,3-1.1,4.9h23.9 C144.1,119.2,143.8,117.5,143.1,116.1z M143.1,116.1c-0.7-1.4-1.5-2.4-2.6-3.3c-1-0.9-2.3-1.5-3.7-1.8c-1.4-0.4-3-0.6-4.6-0.6 c-1.5,0-3,0.2-4.4,0.6c-1.4,0.4-2.7,1-3.8,1.9c-1.1,0.9-2,2-2.8,3.3c-0.7,1.4-1,3-1.1,4.9h23.9C144.1,119.2,143.8,117.5,143.1,116.1 z"/></svg>