<?xml version="1.0" encoding="utf-8" ?>
<!DOCTYPE svg PUBLIC "-//W3C//DTD SVG 1.1//EN" "http://www.w3.org/Graphics/SVG/1.1/DTD/svg11.dtd">
<svg xmlns="http://www.w3.org/2000/svg" xmlns:xlink="http://www.w3.org/1999/xlink" id="Layer_1" x="0px" y="0px" viewBox="0 0 30 30" style="enable-background:new 0 0 30 30;" xml:space="preserve"><path d="M15,5C6.1,5,0.3,14.2,0.2,14.4C0.1,14.6,0,14.8,0,15c0,0.2,0.1,0.4,0.2,0.5c0,0,0,0,0,0C0.2,15.6,5,25,15,25 c9.9,0,14.8-9.3,14.8-9.4c0,0,0,0,0,0c0.1-0.2,0.2-0.4,0.2-0.5c0-0.2-0.1-0.4-0.2-0.6c0,0,0,0,0,0C29.7,14.2,23.9,5,15,5z M15,8 c3.9,0,7,3.1,7,7s-3.1,7-7,7s-7-3.1-7-7S11.1,8,15,8z"/></svg>