<?xml version="1.0" encoding="utf-8" ?>
<!DOCTYPE svg PUBLIC "-//W3C//DTD SVG 1.1//EN" "http://www.w3.org/Graphics/SVG/1.1/DTD/svg11.dtd">
<svg xmlns="http://www.w3.org/2000/svg" id="ad4ff31e-4161-4fea-a56c-63425830cb70" data-name="Layer 1" width="148.678" height="152.06" viewBox="0 0 148.678 152.06"><g id="e4437d60-3ca2-426d-a9de-e5ba01d87401" data-name="Group 9"><g id="a5dcafbf-5083-4a31-914f-b8f46ef3f2e4" data-name="Group 8"><path id="ba53ab0a-7849-4775-98fd-e0d4a338ac62" data-name="Path 25" d="M7.732,104.76a109.307,109.307,0,0,0-1.415,17.7v43.57h40.69a104.792,104.792,0,0,0,18.573-1.678A126.4,126.4,0,0,1,7.732,104.76Z" transform="translate(-6.317 -13.97)"/><path id="b757e9c8-8801-4bd0-a022-6766150f0b4b" data-name="Path 26" d="M114.7,13.971A108.612,108.612,0,0,0,96.05,15.565,123.724,123.724,0,0,1,153.379,72.8,110.291,110.291,0,0,0,155,54.73V13.971Z" transform="translate(-6.317 -13.97)"/><path id="b5b0e312-39d6-4d78-adf4-7d5b124eef3b" data-name="Path 27" d="M46.352,13.971H6.317V54.729c0,60.272,47.494,111.3,107.725,111.3h40.949V122.46A108.193,108.193,0,0,0,47.1,13.97C46.848,13.969,46.6,13.97,46.352,13.971ZM80.523,141.863a51.844,51.844,0,1,1,.058,0h-.058Z" transform="translate(-6.317 -13.97)"/><path id="b0023b78-2007-4885-8c40-1240de62997a" data-name="Path 28" d="M92,89.986a11.44,11.44,0,0,1-4.672-21.9,23.248,23.248,0,0,0-6.8-1.012,22.913,22.913,0,1,0,22.913,22.913h0a23.272,23.272,0,0,0-1.013-6.8A11.371,11.371,0,0,1,92,89.986Z" transform="translate(-6.317 -13.97)"/></g></g></svg>