<?xml version="1.0" encoding="utf-8" ?>
<!DOCTYPE svg PUBLIC "-//W3C//DTD SVG 1.1//EN" "http://www.w3.org/Graphics/SVG/1.1/DTD/svg11.dtd">
<svg xmlns="http://www.w3.org/2000/svg" id="f5c2017a-b3d7-4357-9b6a-e73a57f31c18" data-name="Layer 1" width="148.678" height="152.06" viewBox="0 0 148.678 152.06"><g id="abf01ac4-508a-409d-8b71-0efaba30fe72" data-name="Group 9"><g id="f5d67c28-eef2-429a-936c-f8a4da0c1df2" data-name="Group 8"><path id="a1994d0c-4eea-4fc5-bdb9-3d2a449072df" data-name="Path 25" d="M7.732,104.76a109.307,109.307,0,0,0-1.415,17.7v43.57h40.69a104.792,104.792,0,0,0,18.573-1.678A126.4,126.4,0,0,1,7.732,104.76Z" transform="translate(-6.317 -13.97)" style="fill:#2f7d31"/><path id="e755a2af-2e3f-46a8-87f3-6d36bae1a294" data-name="Path 26" d="M114.7,13.971A108.612,108.612,0,0,0,96.05,15.565,123.724,123.724,0,0,1,153.379,72.8,110.291,110.291,0,0,0,155,54.73V13.971Z" transform="translate(-6.317 -13.97)" style="fill:#2f7d31"/><path id="e32319b6-65e6-41cf-adee-cc366deeb822" data-name="Path 27" d="M46.352,13.971H6.317V54.729c0,60.272,47.494,111.3,107.725,111.3h40.949V122.46A108.193,108.193,0,0,0,47.1,13.97C46.848,13.969,46.6,13.97,46.352,13.971ZM80.523,141.863a51.844,51.844,0,1,1,.058,0h-.058Z" transform="translate(-6.317 -13.97)" style="fill:#2f7d31"/><path id="abb940ca-1806-441f-a9fe-fd3260c38147" data-name="Path 28" d="M92,89.986a11.44,11.44,0,0,1-4.672-21.9,23.248,23.248,0,0,0-6.8-1.012,22.913,22.913,0,1,0,22.913,22.913h0a23.272,23.272,0,0,0-1.013-6.8A11.371,11.371,0,0,1,92,89.986Z" transform="translate(-6.317 -13.97)" style="fill:#2f7d31"/></g></g></svg>