<?xml version="1.0" encoding="utf-8" ?>
<!DOCTYPE svg PUBLIC "-//W3C//DTD SVG 1.1//EN" "http://www.w3.org/Graphics/SVG/1.1/DTD/svg11.dtd">
<svg xmlns="http://www.w3.org/2000/svg" viewBox="0 0 30 30" fill="#000000"><path d="M 26.021484 2.9941406 A 1.0001 1.0001 0 0 0 25.568359 3.0976562 L 2.5683594 14.097656 A 1.0001 1.0001 0 0 0 2.5683594 15.902344 L 25.568359 26.902344 A 1.0002693 1.0002693 0 1 0 26.431641 25.097656 L 24.189453 24.025391 C 24.99597 22.802785 27 19.352086 27 15 C 27 10.647914 24.99597 7.1972155 24.189453 5.9746094 L 26.431641 4.9023438 A 1.0001 1.0001 0 0 0 26.021484 2.9941406 z M 22.363281 6.8476562 C 22.792941 7.4669715 25 10.829189 25 15 C 25 19.170811 22.792941 22.533028 22.363281 23.152344 L 16.589844 20.390625 C 17.461682 19.421507 19 17.381577 19 15 C 19 12.618423 17.461682 10.578493 16.589844 9.609375 L 22.363281 6.8476562 z M 14.675781 10.525391 C 13.871275 11.6246 13 13.211273 13 15 C 13 16.788727 13.871275 18.3754 14.675781 19.474609 L 5.3183594 15 L 14.675781 10.525391 z" fill="#000000"/></svg>