<?xml version="1.0" encoding="utf-8" ?>
<!DOCTYPE svg PUBLIC "-//W3C//DTD SVG 1.1//EN" "http://www.w3.org/Graphics/SVG/1.1/DTD/svg11.dtd">
<svg xmlns="http://www.w3.org/2000/svg" viewBox="0 0 30 30" fill="#000000"><path d="M 10 6 A 1.0001 1.0001 0 0 0 9.9003906 6.0039062 C 5.8230206 6.0492196 2.4338895 8.8409467 1.3847656 12.605469 C 0.59070675 13.147264 1.4802974e-16 13.974746 0 15 C 0 16.025254 0.59070675 16.852736 1.3847656 17.394531 C 2.4425108 21.189989 5.8778142 24 10 24 C 11.848273 24 13.556865 23.432166 14.976562 22.466797 C 16.410348 23.435041 18.14326 24 20 24 C 24.122186 24 27.557489 21.189989 28.615234 17.394531 C 29.409293 16.852736 30 16.025254 30 15 C 30 13.974746 29.409293 13.147264 28.615234 12.605469 C 27.557489 8.8100112 24.122186 6 20 6 A 1.0001 1.0001 0 0 0 19.900391 6.0039062 C 18.081667 6.0239389 16.384449 6.5824493 14.976562 7.5332031 C 13.556865 6.5678335 11.848273 6 10 6 z M 10 8 C 10.56503 8 11 8.4349698 11 9 C 11 9.5650302 10.56503 10 10 10 A 1.0001 1.0001 0 1 0 10 12 C 11.64497 12 13 10.64497 13 9 C 13 8.8925298 12.98002 8.7902449 12.96875 8.6855469 C 14.871682 9.5834507 16.310596 11.294096 16.804688 13.386719 A 1.0001 1.0001 0 0 0 17.388672 14.078125 C 17.746608 14.229675 18 14.576308 18 15 C 18 15.423692 17.746608 15.770325 17.388672 15.921875 A 1.0001 1.0001 0 0 0 16.804688 16.613281 C 16.076208 19.698602 13.319699 22 10 22 C 6.6803007 22 3.923791 19.698602 3.1953125 16.613281 A 1.0001 1.0001 0 0 0 2.6113281 15.921875 C 2.253392 15.770325 2 15.423692 2 15 C 2 14.576308 2.253392 14.229675 2.6113281 14.078125 A 1.0001 1.0001 0 0 0 3.1953125 13.386719 C 3.923791 10.301398 6.6803007 8 10 8 z M 20 8 C 20.56503 8 21 8.4349698 21 9 C 21 9.5650302 20.56503 10 20 10 A 1.0001 1.0001 0 1 0 20 12 C 21.64497 12 23 10.64497 23 9 C 23 8.8925298 22.98002 8.7902449 22.96875 8.6855469 C 24.871682 9.5834507 26.310596 11.294096 26.804688 13.386719 A 1.0001 1.0001 0 0 0 27.388672 14.078125 C 27.746608 14.229675 28 14.576308 28 15 C 28 15.423692 27.746608 15.770325 27.388672 15.921875 A 1.0001 1.0001 0 0 0 26.804688 16.613281 C 26.076208 19.698602 23.319699 22 20 22 C 18.744882 22 17.576093 21.669457 16.5625 21.09375 C 17.135446 20.466891 17.618739 19.75672 18 18.986328 C 18.45559 19.598353 19.17795 20 20 20 C 21.21 20 22.217219 19.141 22.449219 18 L 18.419922 18 C 18.490791 17.800733 18.558013 17.599855 18.615234 17.394531 C 19.409293 16.852736 20 16.025254 20 15 C 20 13.974746 19.409293 13.147264 18.615234 12.605469 C 18.225724 11.207806 17.512404 9.9455378 16.5625 8.90625 C 17.576093 8.3305425 18.744882 8 20 8 z M 7 14 A 1 1 0 0 0 6 15 A 1 1 0 0 0 7 16 A 1 1 0 0 0 8 15 A 1 1 0 0 0 7 14 z M 13 14 A 1 1 0 0 0 12 15 A 1 1 0 0 0 13 16 A 1 1 0 0 0 14 15 A 1 1 0 0 0 13 14 z M 23 14 A 1 1 0 0 0 22 15 A 1 1 0 0 0 23 16 A 1 1 0 0 0 24 15 A 1 1 0 0 0 23 14 z M 7.5507812 18 C 7.7827813 19.141 8.79 20 10 20 C 11.21 20 12.217219 19.141 12.449219 18 L 7.5507812 18 z" fill="#000000"/></svg>