<?xml version="1.0" encoding="utf-8" ?>
<!DOCTYPE svg PUBLIC "-//W3C//DTD SVG 1.1//EN" "http://www.w3.org/Graphics/SVG/1.1/DTD/svg11.dtd">
<svg xmlns="http://www.w3.org/2000/svg" viewBox="0 0 30 30" fill="#000000"><path d="M 15.001953 6 C 6.6956668 6 1.3272146 14.20874 1.2167969 14.378906 C 1.2156442 14.380683 1.1953125 14.408203 1.1953125 14.408203 A 1 1 0 0 0 1 15 A 1 1 0 0 0 1.1621094 15.544922 A 1 1 0 0 0 1.1738281 15.564453 C 1.1944309 15.602795 1.7591806 16.597699 2.8203125 17.886719 L 1.3242188 19.263672 A 1.0001 1.0001 0 1 0 2.6777344 20.736328 L 4.1679688 19.365234 C 4.6605454 19.849002 5.2141833 20.334127 5.8300781 20.806641 L 4.8144531 22.396484 A 1.0001 1.0001 0 1 0 6.5 23.472656 L 7.4863281 21.929688 C 8.1518114 22.322365 8.8778367 22.672336 9.6503906 22.976562 L 9.0566406 24.669922 A 1.0003606 1.0003606 0 1 0 10.945312 25.330078 L 11.554688 23.587891 C 12.323427 23.773256 13.144067 23.88589 14 23.943359 L 14 26 A 1.0001 1.0001 0 1 0 16 26 L 16 23.943359 C 16.856934 23.88598 17.677711 23.773453 18.447266 23.587891 L 19.056641 25.330078 A 1.0001 1.0001 0 1 0 20.943359 24.669922 L 20.351562 22.976562 C 21.124111 22.672336 21.850153 22.322365 22.515625 21.929688 L 23.501953 23.472656 A 1.0001 1.0001 0 1 0 25.1875 22.396484 L 24.171875 20.806641 C 24.78775 20.334127 25.34144 19.849002 25.833984 19.365234 L 27.322266 20.736328 A 1.0007509 1.0007509 0 1 0 28.677734 19.263672 L 27.181641 17.886719 C 28.255725 16.581787 28.826324 15.567689 28.833984 15.552734 C 28.834043 15.552621 28.837893 15.544922 28.837891 15.544922 A 1 1 0 0 0 29 15 A 1 1 0 0 0 28.806641 14.410156 A 1 1 0 0 0 28.806641 14.408203 C 28.806641 14.408203 23.394953 6 15.001953 6 z" fill="#000000"/></svg>