<?xml version="1.0" encoding="utf-8" ?>
<!DOCTYPE svg PUBLIC "-//W3C//DTD SVG 1.1//EN" "http://www.w3.org/Graphics/SVG/1.1/DTD/svg11.dtd">
<svg xmlns="http://www.w3.org/2000/svg" viewBox="0 0 30 30" fill="#000000"><path d="M 15 4 C 8.935 4 4 8.935 4 15 L 3 15 A 1.0001 1.0001 0 1 0 3 17 L 27 17 A 1.0001 1.0001 0 1 0 27 15 L 26 15 C 26 8.935 21.065 4 15 4 z M 15 6 C 19.962 6 24 10.038 24 15 L 21 15 C 21 14.074 20.784156 13.200969 20.410156 12.417969 C 20.048156 12.776969 19.55 13 19 13 C 17.895 13 17 12.105 17 11 C 17 10.45 17.223031 9.9518437 17.582031 9.5898438 C 16.799031 9.2158437 15.926 9 15 9 C 11.686 9 9 11.686 9 15 L 6 15 C 6 10.038 10.038 6 15 6 z M 4.7636719 19 C 6.3686719 23.091 10.347 26 15 26 C 19.653 26 23.631328 23.091 25.236328 19 L 23.050781 19 C 21.574781 21.958 18.524 24 15 24 C 11.476 24 8.4252188 21.958 6.9492188 19 L 4.7636719 19 z M 10.537109 19 C 11.636109 20.225 13.225 21 15 21 C 16.775 21 18.364891 20.225 19.462891 19 L 10.537109 19 z" fill="#000000"/></svg>