<?xml version="1.0" encoding="utf-8" ?>
<!DOCTYPE svg PUBLIC "-//W3C//DTD SVG 1.1//EN" "http://www.w3.org/Graphics/SVG/1.1/DTD/svg11.dtd">
<svg xmlns="http://www.w3.org/2000/svg" viewBox="0 0 30 30" fill="#000000"><path d="M 14.984375 1.9863281 A 1.0001 1.0001 0 0 0 14 3 L 14 12 L 14 15.271484 A 2 2 0 0 0 13 17 A 2 2 0 0 0 15 19 A 2 2 0 0 0 17 17 A 2 2 0 0 0 16 15.269531 L 16 3 A 1.0001 1.0001 0 0 0 14.984375 1.9863281 z M 24.980469 5.9902344 A 1.0001 1.0001 0 0 0 24.292969 6.2929688 L 18.792969 11.792969 A 1.0001 1.0001 0 1 0 20.207031 13.207031 L 25.707031 7.7070312 A 1.0001 1.0001 0 0 0 24.980469 5.9902344 z M 7.9902344 8.9902344 A 1.0001 1.0001 0 0 0 7.2929688 10.707031 L 10.292969 13.707031 A 1.0001 1.0001 0 1 0 11.707031 12.292969 L 8.7070312 9.2929688 A 1.0001 1.0001 0 0 0 7.9902344 8.9902344 z M 4 16 A 1.0001 1.0001 0 1 0 4 18 L 9.2011719 18 C 9.3545678 18.884024 9.7071303 19.690302 10.185547 20.400391 L 8.2929688 22.292969 A 1.0001 1.0001 0 1 0 9.7070312 23.707031 L 11.564453 21.849609 C 12.27093 22.374381 13.093917 22.746653 14 22.908203 L 14 27 A 1.0001 1.0001 0 1 0 16 27 L 16 22.912109 C 16.911119 22.75577 17.728291 22.374959 18.435547 21.849609 L 22.292969 25.707031 A 1.0001 1.0001 0 1 0 23.707031 24.292969 L 19.814453 20.400391 C 20.29287 19.690302 20.645432 18.884024 20.798828 18 L 26 18 A 1.0001 1.0001 0 1 0 26 16 L 20 16 A 1.0001 1.0001 0 0 0 19 17 C 19 19.244604 17.321061 20.945233 15.091797 20.992188 A 1.0001 1.0001 0 0 0 14.984375 20.986328 A 1.0001 1.0001 0 0 0 14.904297 20.990234 C 12.677107 20.941244 11 19.243208 11 17 A 1.0001 1.0001 0 0 0 10 16 L 4 16 z" fill="#000000"/></svg>