<?xml version="1.0" encoding="utf-8" ?>
<!DOCTYPE svg PUBLIC "-//W3C//DTD SVG 1.1//EN" "http://www.w3.org/Graphics/SVG/1.1/DTD/svg11.dtd">
<svg xmlns="http://www.w3.org/2000/svg" viewBox="0 0 30 30" fill="#000000"><path d="M 15 5 C 6.509 5 1.3429531 14.126625 1.1269531 14.515625 C 0.95895312 14.817625 0.95895313 15.184328 1.1269531 15.486328 C 1.3429531 15.874328 6.509 25 15 25 C 16.59 25 18.062203 24.67925 19.408203 24.15625 C 19.713203 23.26825 20.154281 22.269453 20.613281 21.314453 C 18.985281 22.302453 17.101 23 15 23 C 8.725 23 4.3179219 16.801047 3.1699219 14.998047 C 3.1699219 14.998047 5.904914 14.206375 9.1660156 13.619141 C 9.0605067 14.062799 9 14.523679 9 15 C 9 18.314 11.686 21 15 21 C 18.314 21 21 18.314 21 15 C 21 14.496296 20.932032 14.009773 20.814453 13.542969 C 24.019296 14.064881 26.7038 14.803427 26.830078 15.001953 C 26.375078 15.718953 25.398953 17.129313 24.001953 18.570312 L 24.779297 20.087891 C 24.840297 20.206891 24.903797 20.334031 24.966797 20.457031 C 27.390797 18.105031 28.764047 15.681375 28.873047 15.484375 C 29.041047 15.183375 29.041047 14.816625 28.873047 14.515625 C 28.657047 14.126625 23.491 5 15 5 z M 15 13.5 C 15.828 13.5 16.5 14.172 16.5 15 C 16.5 15.828 15.828 16.5 15 16.5 C 14.172 16.5 13.5 15.828 13.5 15 C 13.5 14.172 14.172 13.5 15 13.5 z M 23 21.705078 C 22.798 21.705078 22.596141 21.812391 22.494141 22.025391 C 21.901141 23.259391 21 25.258 21 26 C 21 27.105 21.895 28 23 28 C 24.105 28 25 27.105 25 26 C 25 25.258 24.098859 23.259391 23.505859 22.025391 C 23.403859 21.812391 23.202 21.705078 23 21.705078 z" fill="#000000"/></svg>