<?xml version="1.0" encoding="utf-8" ?>
<!DOCTYPE svg PUBLIC "-//W3C//DTD SVG 1.1//EN" "http://www.w3.org/Graphics/SVG/1.1/DTD/svg11.dtd">
<svg xmlns="http://www.w3.org/2000/svg" viewBox="0 0 48 48" fill="#000000"><path d="M 24 4 C 12.972 4 4 12.972 4 24 C 4 35.028 12.972 44 24 44 C 24.879 44 25.737891 43.9235 26.587891 43.8125 C 25.734891 42.3185 25.801437 40.438094 26.898438 38.996094 L 28.572266 36.800781 C 29.722266 35.289781 31.738703 34.635828 33.595703 35.173828 L 35.873047 35.833984 C 35.875047 35.831984 35.878859 35.830125 35.880859 35.828125 C 36.091859 35.650125 36.548422 35.183547 37.232422 34.060547 C 37.824422 33.088547 38.049766 32.505844 38.134766 32.214844 L 36.486328 30.757812 C 34.995328 29.440812 34.560297 27.360031 35.404297 25.582031 L 36.580078 23.101562 C 37.530078 21.100562 39.884453 20.061594 42.064453 20.683594 L 43.587891 21.117188 C 43.652891 21.136187 43.713344 21.164547 43.777344 21.185547 C 42.401344 11.487547 34.07 4 24 4 z M 24.5 12 C 25.329 12 26 12.671 26 13.5 L 26 25.5 C 26 26.329 25.329 27 24.5 27 L 16.5 27 C 15.671 27 15 26.329 15 25.5 C 15 24.671 15.671 24 16.5 24 L 23 24 L 23 13.5 C 23 12.671 23.671 12 24.5 12 z M 40.578125 22.507812 C 39.648125 22.573484 38.789922 23.111031 38.388672 23.957031 L 37.210938 26.439453 C 36.752938 27.404453 36.994547 28.538766 37.810547 29.259766 L 39.761719 30.982422 C 39.990719 31.184422 40.134922 31.459906 40.169922 31.753906 C 40.201922 32.028906 40.301406 32.867562 38.941406 35.101562 C 38.307406 36.142562 37.710016 36.902375 37.166016 37.359375 C 36.941016 37.547375 36.347109 38.048469 35.662109 37.855469 L 33.037109 37.095703 C 31.969109 36.785703 30.815109 37.153719 30.162109 38.011719 L 28.490234 40.207031 C 27.729234 41.207031 27.8695 42.599266 28.8125 43.447266 L 29.96875 44.486328 C 30.96075 45.376328 32.395937 45.714234 33.710938 45.365234 C 37.003937 44.493234 40.071125 41.755516 42.828125 37.228516 C 45.589125 32.695516 46.553266 28.804109 45.697266 25.662109 C 45.357266 24.416109 44.339063 23.410062 43.039062 23.039062 L 41.517578 22.605469 C 41.205828 22.516219 40.888125 22.485922 40.578125 22.507812 z" fill="#000000"/></svg>