<?xml version="1.0" encoding="utf-8" ?>
<!DOCTYPE svg PUBLIC "-//W3C//DTD SVG 1.1//EN" "http://www.w3.org/Graphics/SVG/1.1/DTD/svg11.dtd">
<svg xmlns="http://www.w3.org/2000/svg" xmlns:xlink="http://www.w3.org/1999/xlink" id="be910304-389d-41f7-9efe-d0147d1b5652" x="0px" y="0px" viewBox="0 0 1344.8 518" style="enable-background:new 0 0 1344.8 518;" xml:space="preserve"><path id="bc4dbb69-c2ea-4946-9fbf-3005f789d7c1" d="M1079.2,0C932.8,0,813.6,116.2,813.6,259s119.2,259,265.6,259 s265.6-116.2,265.6-259S1225.7,0,1079.2,0z M1227.9,248.6v21.1c0,40.9-4.1,70.3-12.5,88.7c-7.6,18.2-24.6,30.8-44.2,32.9l-12.4,1.8 V131.8l7.9,1.1c5.7,0.8,11.3,2,16.7,3.6c3.6,3.9,7.3,7.7,11.1,11.5c7.7,7.8,15.7,15,23.6,21.7C1225.7,195.4,1229.1,222,1227.9,248.6 L1227.9,248.6z M1273.1,196.8c-26.8-14.5-51.2-33-72.3-54.9c-4.1-4.1-8.1-8.3-12-12.5c-16.9-17.9-31.3-38.1-42.9-59.8 c-10.3-20.5-12.6-36.6-6.2-43.1c0.7-0.7,1.6-1.3,2.5-1.8c17.2,4.4,33.9,10.6,49.8,18.5c-0.9,0.4-1.7,1-2.4,1.7 c-10.3,10.3,6.5,43.6,37.4,74.5s64.2,47.6,74.5,37.4c0.8-0.8,1.4-1.8,1.9-2.8c6.7,13.5,12.1,27.5,16.1,42c-0.3,2.6-1.5,5.1-3.3,7 c-6.4,6.4-22.1,4.2-42.2-5.7L1273.1,196.8z M1079.2,501.2C942,501.2,830.4,392.6,830.4,259S942,16.8,1079.2,16.8 c17.6,0,35.2,1.8,52.5,5.4c-7.7,10.1-5.5,27.8,6.3,51.3c10,19.1,22.4,37,36.7,53.2h-0.2l-111.3-17.1v8.3l26.1,3.8v281.5l-26.1,3.8 v8.3l102.9-15.8c38.9-6,67.1-19.4,86.6-39.8c20-21,29.7-54.5,29.7-101.3c0.2-16.8-1.5-33.5-5.1-49.9c8.8,4.1,18.2,6.5,27.9,7 c3.3,0,6.7-0.5,9.8-1.6c2.8-1,5.4-2.6,7.5-4.7c0.1-0.1,0.2-0.2,0.2-0.3c3.6,16.5,5.4,33.3,5.4,50.1 C1328,392.5,1216.4,501.2,1079.2,501.2L1079.2,501.2z"/><rect id="b05d8c3e-6bf4-450e-9647-c48b052aeeff" x="9.3" y="149.7" width="12.9" height="100.4"/><path id="b2cb6fe6-d9f1-4c8b-aec3-581ee1da696f" d="M15.7,129.7c2.8,0,5.6-1.1,7.5-3.1c2-2,3.2-4.7,3.1-7.5 c0-5.9-4.8-10.7-10.7-10.7c0,0,0,0,0,0c-2.8,0-5.5,1.1-7.4,3.1c-2,2-3.2,4.7-3.1,7.6c0,2.8,1.1,5.5,3.1,7.5 C10.2,128.6,12.9,129.7,15.7,129.7z"/><path id="bfc3c013-2db2-43f0-8786-38c555157229" d="M117.1,253.6c13.2,0.2,26.2-3.4,37.5-10.3l13.8,17.6h16.7L165,235.4 c7.5-6.9,13.5-15.1,17.7-24.4c3.9-9.1,5.8-18.9,5.7-28.7c0.4-39-30.8-70.9-69.8-71.4c-0.6,0-1.2,0-1.7,0c-12.6-0.1-25,3.1-35.9,9.4 C70,126.6,61.1,135.7,55,146.6c-6.3,11.1-9.6,23.6-9.5,36.3c-0.3,18.8,7.2,37,20.7,50C79.6,246.5,98.1,254,117.1,253.6z M67.1,153.1 c10.2-17.8,29.2-28.9,49.8-29c10.1,0,20.1,2.7,28.8,7.9c8.8,5,16.1,12.2,21.2,20.9c5.1,8.9,7.7,19,7.5,29.3 c0.3,16.1-6.1,31.5-17.7,42.6l-24.3-30.7h-16.5l30.2,38.4c-9,5.2-19.2,8-29.6,7.9c-31.5,0-57-25.5-57.1-56.9c0-0.2,0-0.4,0-0.6 C59.4,172.4,62,162.2,67.1,153.1z"/><rect id="f2765d6d-79d5-4a8f-9735-f67edb953727" x="205.4" y="193.5" width="50.8" height="11.3"/><path id="b116f58d-330c-42df-9847-14391ec7b8c5" d="M344.5,237h-52.3V114.4h-13.6v135.8h65.8L344.5,237z"/><path id="f2f350c9-ad5f-4fe5-a75b-44a34149169c" d="M448.8,205.5l21.4,44.7h14.7l-63.3-135.8h-3.3L354,250.1h15.1l21.2-44.7H448.8z M419.8,143.2l23.2,49.2h-46.4L419.8,143.2z"/><path id="a1d94b51-e00b-41dc-b301-c92f1fd1651f" d="M560.1,242.7c7.2-6.6,11.3-15.9,11.2-25.7c-0.1-7.3-2.4-14.4-6.6-20.4 c-6.7-9-14.9-16.9-24.2-23.2c-9.9-7.3-15.8-11.9-17.5-13.6c-2.8-2.6-5.1-5.7-6.7-9.1c-1.2-2.7-1.8-5.6-1.8-8.6 c-0.1-4.6,1.8-9.1,5.2-12.3c3.6-3.4,8.5-5.2,13.4-5c4.2,0,8.2,1.1,11.8,3.2c5.1,3.7,9.5,8.2,13.1,13.4l11.1-8.4 c-4.6-7-10.7-12.9-17.7-17.5c-5.5-3.1-11.7-4.8-18-4.8c-5.9,0-11.6,1.4-16.8,4.2c-5,2.6-9.1,6.6-12,11.5c-2.8,4.9-4.3,10.5-4.2,16.2 c0,7.5,2.6,14.8,7.2,20.8c6.3,7,13.4,13.2,21.1,18.6c8.8,6.1,16.6,13.4,23.3,21.8c2.9,3.9,4.5,8.5,4.6,13.4c0,4-1.1,7.9-3.1,11.4 c-2.2,3.7-5.4,6.6-9.1,8.5c-3.9,2.1-8.4,3.2-12.8,3.2c-10.6,0-20-7.5-28.1-22.4l-11.5,6.9c4.3,8.8,10.7,16.4,18.6,22.1 c6.7,4.4,14.5,6.7,22.4,6.6C543.1,253.7,552.9,249.8,560.1,242.7z"/><rect id="e260b455-7280-4f6d-a848-32989640bb69" x="598.1" y="114.3" width="13.6" height="135.8"/><path id="ba129bea-378a-402f-8fb0-64712347416d" d="M729.2,114.4h-18.2l-54.3,51v-51h-13.8v135.8h13.8v-63.3l59.5,63.3h18.1 l-70.3-74.9L729.2,114.4z"/><path id="b21b6c83-e9bc-45ef-be39-f164b36bf83a" d="M66.9,299c-24-0.1-46.2,12.8-57.9,33.7c-6,10.5-9,22.3-9,34.3 c-0.3,17.8,6.8,35,19.7,47.4c12.7,12.9,30.2,20,48.3,19.6c18,0.3,35.3-6.8,47.9-19.7c26.2-26.6,26.2-69.3,0-95.9 C102.8,305.6,85.2,298.5,66.9,299z M115,394.4c-4.7,8.3-11.5,15.2-19.9,19.9c-8.4,4.8-18,7.3-27.7,7.3c-14.4,0.2-28.2-5.5-38.3-15.8 C18.7,395.6,13,381.6,13.3,367c-0.1-9.8,2.3-19.5,7.2-28.1c4.7-8.3,11.6-15.3,20-20c8.2-4.9,17.5-7.4,27-7.4 c9.7,0,19.1,2.6,27.5,7.4c8.4,4.7,15.3,11.5,20.1,19.8c4.8,8.4,7.3,18,7.1,27.7C122.3,376.2,119.8,385.9,115,394.4L115,394.4z"/><path id="ef2f87c6-dc9e-4ae9-b865-0fe134275f1e" d="M246,302.3h-14.8l-31,50l-30.8-50h-15l38.3,62.2l-41.1,66.3h15l33.5-54.2 l33.4,54.2h15l-40.9-66.4L246,302.3z"/><path id="b7d22f6c-d62c-49cf-a0bb-90d6b639266a" d="M307.7,355.3l-32.9-53H260l41.5,67.1v61.4h12.7v-61.4l40.7-67.1h-14.9 L307.7,355.3z"/><path id="bf0a414b-5ae2-4b8d-b2da-98857349015c" d="M452.3,381.6h41c-1.4,11.4-7.3,21.8-16.3,29c-9.5,7.6-21.4,11.6-33.6,11.2 c-10.5,0.1-20.8-2.5-30.1-7.5c-8.9-4.8-16.3-11.9-21.5-20.5c-5.1-8.3-7.8-17.8-7.8-27.6c0-9.5,2.6-18.8,7.5-26.9 c5.1-8.5,12.4-15.5,21.2-20.1c8.8-4.9,18.7-7.4,28.8-7.4c8.6,0.1,17.1,2,24.9,5.4c8.8,3.8,16.8,9.3,23.6,16l10-9.4 c-8.1-8-17.7-14.4-28.1-18.9c-9.8-4-20.2-6-30.8-5.9c-12.6-0.2-25.1,2.9-36.2,8.9c-10.5,5.7-19.2,14.2-25.2,24.6 c-6.1,10.3-9.2,22-9.2,34c-0.2,15.9,5.5,31.3,16,43.2c14.1,16.3,34.9,25.3,56.4,24.3c17.4,0.8,34.3-5.5,46.9-17.5 c12.1-12.7,18.5-29.8,17.7-47.3h-55.4V381.6z"/><path id="b61cf828-1c5c-4cad-9d23-c3810a3c0018" d="M532.2,430.8h73.1v-12.6h-60.3v-50.5h60.3v-12.6h-60.3v-40.3h60.8v-12.6h-73.7 L532.2,430.8z"/><path id="bc81577a-670b-4192-8a7a-747dcc4e462f" d="M716.5,400.8L631,302.3h-2.8v128.5h13.3v-97.3l84.8,97.3h2.9V302.3h-12.7 L716.5,400.8z"/><path id="f3058011-4b46-464c-b89e-da687c913aad" d="M1037.5,273.8c-20-15.8-44.6-24.4-70.1-24.6v-0.8c21.3-4.1,41.1-13.8,57.5-28 c14.8-12.9,23.3-31.7,23.2-51.4c0-49-32.4-64.5-87.7-49.2c-20.2,4.3-38.5,14.8-52.5,30c-9.9,11.5-15.4,26.1-15.4,41.3 c-0.4,7.8,1.6,15.5,5.6,22.2c3.5,5.7,10.1,8.7,16.7,7.7c7.3-0.5,14.1-4,18.7-9.7c4.8-5.6,7.5-12.8,7.5-20.2 c0.2-6.3-0.7-12.7-2.4-18.8l-8.6,1.6c-1.2-4.3-1.8-8.9-1.7-13.4c0.3-6.2,1.9-12.2,4.8-17.7c3.3-6.8,9.6-11.6,16.9-13.2 c7.4-2.5,15.4,1.5,17.9,9c0,0,0,0,0,0c0.1,0.3,0.2,0.6,0.3,0.9c4.6,15.4,6.6,31.6,5.6,47.7c0,22.8-3.2,38.9-9.3,48.1 c-6,9-18.3,14.8-35.9,17.4l0.9,8.2c9-1.1,17.9-2.8,26.6-5.2c9.1,5.5,16.2,13.8,20.3,23.6c5.7,16.4,8.2,33.8,7.3,51.2 c0.9,17.6-1.7,35.3-7.6,51.9c-4.1,10.4-15.9,15.6-26.4,11.5c0,0,0,0,0,0l-0.3-0.1c-15.6-2.7-26.5-16.9-25.1-32.6c0-4,0.6-8,1.7-11.8 l9,1.6c1.7-6,2.5-12.3,2.4-18.6c0-7.3-2.5-14.4-7.1-20c-4.4-5.6-11.1-9.1-18.2-9.6c-6.6-0.9-13.2,2.2-16.8,7.8 c-4.4,7.7-6.4,16.4-5.8,25.2c-0.1,11,3.1,21.7,9.1,30.9c5.5,9.1,13.1,16.8,22.1,22.4c9.3,5.6,19.4,9.8,29.9,12.7 c30.9,8.6,57.7,7.9,78.8-3.3c22.7-12.1,34.7-33.6,34.7-64C1064.9,311.4,1055.1,289.1,1037.5,273.8z"/></svg>