<?xml version="1.0" encoding="utf-8" ?>
<!DOCTYPE svg PUBLIC "-//W3C//DTD SVG 1.1//EN" "http://www.w3.org/Graphics/SVG/1.1/DTD/svg11.dtd">
<svg xmlns="http://www.w3.org/2000/svg" id="acb158cf-c582-40bb-b935-4a8b30259e6e" data-name="Layer 1" width="919.815" height="239.876" viewBox="0 0 919.815 239.876"><path d="M946.18,289h11.209v3.8h-3.7v16.476h-3.915V292.8h-3.6Z" transform="translate(-62.556 -265.645)"/><path d="M962,289h3.761l4.7,14.145L975.21,289h3.759l3.4,20.28h-3.734l-2.174-12.808-4.308,12.808h-3.4l-4.27-12.808-2.227,12.808h-3.763Z" transform="translate(-62.556 -265.645)"/><path d="M552.915,301.723a11.371,11.371,0,0,1,8.386,3.541,11.762,11.762,0,0,1,3.5,8.58,11.625,11.625,0,0,1-3.463,8.479,11.234,11.234,0,0,1-8.284,3.507,11.393,11.393,0,0,1-8.455-3.576,11.954,11.954,0,0,1-3.5-8.682,11.839,11.839,0,0,1,11.815-11.849Zm-9.295,30.508h18.59v74.091H543.62Z" transform="translate(-62.556 -265.645)"/><path d="M667.08,391.683l17.436,22.539H661.942l-8.857-11.4a50.083,50.083,0,0,1-24.479,6.016q-22.571,0-37.5-15.56a52.73,52.73,0,0,1,11.132-82.569,51.073,51.073,0,0,1,26.133-7.083q21.328,0,36.627,15.392t15.3,37.522A50.956,50.956,0,0,1,667.08,391.683Zm-11.915-15.4a34.8,34.8,0,0,0,6.061-19.882,33.488,33.488,0,0,0-9.613-24.173,31.147,31.147,0,0,0-23.245-9.942,31.607,31.607,0,0,0-23.518,9.67q-9.477,9.672-9.475,24.584,0,16.617,11.937,26.286a32.82,32.82,0,0,0,21.214,7.559,31.29,31.29,0,0,0,12.824-2.662l-17.938-23.079H646.16Z" transform="translate(-62.556 -265.645)"/><path d="M698.816,360.764H733.41v17.3H698.816Z" transform="translate(-62.556 -265.645)"/><path d="M756.837,306.149H775.9v81.99h27.784v18.183H756.837Z" transform="translate(-62.556 -265.645)"/><path d="M823.4,301.723a11.368,11.368,0,0,1,8.385,3.541,11.759,11.759,0,0,1,3.5,8.58,11.629,11.629,0,0,1-3.463,8.479,11.234,11.234,0,0,1-8.283,3.507,11.394,11.394,0,0,1-8.456-3.576,11.954,11.954,0,0,1-3.5-8.682A11.839,11.839,0,0,1,823.4,301.723Zm-9.3,30.508H832.7v74.091h-18.59Z" transform="translate(-62.556 -265.645)"/><path d="M840.734,332.231h6.606q.066-14.571.476-17.229a14.2,14.2,0,0,1,5.142-9.7q4.392-3.576,12.428-3.575a38.688,38.688,0,0,1,13.074,2.656v14.164a24.957,24.957,0,0,0-6.605-1.158q-3.268,0-4.767,1.362Q866,319.769,866,322.97l-.069,9.261h11.781v15.731H865.93v58.36H847.34v-58.36h-6.606Z" transform="translate(-62.556 -265.645)"/><path d="M962.834,374.656H903.112a19.88,19.88,0,0,0,6.911,12.564q5.62,4.666,14.335,4.665a24.788,24.788,0,0,0,17.911-7.286l15.662,7.354A36.971,36.971,0,0,1,943.9,404.245q-8.172,3.984-19.408,3.984-17.435,0-28.4-11t-10.964-27.546q0-16.958,10.929-28.159t27.411-11.2q17.5,0,28.465,11.2T962.9,371.115Zm-18.591-14.641a18.655,18.655,0,0,0-7.264-10.079,21.069,21.069,0,0,0-12.586-3.881,22.263,22.263,0,0,0-13.642,4.358q-3.684,2.726-6.822,9.6Z" transform="translate(-62.556 -265.645)"/><path d="M560.729,461.643l-.808-.919-8.884,10.525H541.1l13.481-15.329-13.316-14.529h9.147l10.317,11.178V441.391h7.491v11.178L578.5,441.391h9.185l-13.3,14.549,13.462,15.309h-9.937l-8.9-10.546-.79.94v9.606h-7.491Z" transform="translate(-62.556 -265.645)"/><path d="M597.115,471.249h-3.979V441.391h7.3v17.536l15.285-17.536h3.6v29.858h-7.3V454.07Z" transform="translate(-62.556 -265.645)"/><path d="M629.138,471.249V441.391h11.993q5.9,0,8.013,2.319a7.592,7.592,0,0,1,2.113,5.255q0,4.364-4.336,6.285,5.928,2.029,5.928,7.656a7.9,7.9,0,0,1-1.564,5.036,7.433,7.433,0,0,1-3.966,2.648,26.614,26.614,0,0,1-6.71.659Zm7.492-18.112h2.894a4.075,4.075,0,0,0,2.851-.92,2.726,2.726,0,0,0,1.006-2.044,3.465,3.465,0,0,0-.964-2.608,3.182,3.182,0,0,0-2.287-.932l-.965.027H636.63Zm0,12.349H640.4a3.945,3.945,0,0,0,3.1-1.029,3.116,3.116,0,0,0,.9-2.018,4.069,4.069,0,0,0-1.006-2.662q-1-1.206-3.621-1.207h-3.14Z" transform="translate(-62.556 -265.645)"/><path d="M675.487,440.622a15.822,15.822,0,0,1,7.944,2.114,15.5,15.5,0,0,1,7.89,13.556,15.685,15.685,0,0,1-2.1,7.9,15.152,15.152,0,0,1-5.722,5.749,15.8,15.8,0,0,1-7.986,2.072,14.9,14.9,0,0,1-10.963-4.569,15.829,15.829,0,0,1,.589-22.764A15,15,0,0,1,675.487,440.622Zm.123,7.053A7.712,7.712,0,0,0,669.8,450.1a8.624,8.624,0,0,0-2.323,6.216,8.778,8.778,0,0,0,2.3,6.311,7.672,7.672,0,0,0,5.814,2.416,7.768,7.768,0,0,0,5.855-2.443,9.629,9.629,0,0,0,.041-12.527A7.763,7.763,0,0,0,675.61,447.675Z" transform="translate(-62.556 -265.645)"/><path d="M729.6,458.487H705.534a8,8,0,0,0,2.785,5.063,8.732,8.732,0,0,0,5.777,1.88,9.988,9.988,0,0,0,7.217-2.935l6.312,2.964a14.91,14.91,0,0,1-5.653,4.953,17.7,17.7,0,0,1-7.821,1.605,15.461,15.461,0,0,1-11.444-4.432,15.082,15.082,0,0,1-4.418-11.1,15.59,15.59,0,0,1,4.4-11.347,14.793,14.793,0,0,1,11.045-4.515,15.344,15.344,0,0,1,11.471,4.515q4.417,4.515,4.418,11.924Zm-7.492-5.9a7.514,7.514,0,0,0-2.928-4.062,8.492,8.492,0,0,0-5.071-1.564,8.973,8.973,0,0,0-5.5,1.756,9.786,9.786,0,0,0-2.749,3.87Z" transform="translate(-62.556 -265.645)"/><path d="M760.881,458.6v-5.351h1.482a4.8,4.8,0,0,0,2.634-.715,2.524,2.524,0,0,0,1.126-2.305,2.9,2.9,0,0,0-1-2.264,3.568,3.568,0,0,0-2.458-.892,9.188,9.188,0,0,0-4.614,1.784l-2.964-5.159a13.532,13.532,0,0,1,8.62-3.074,11.321,11.321,0,0,1,7.234,2.264,7.375,7.375,0,0,1,2.869,6.107q0,3.9-4.172,6.311,5.571,2.058,5.571,7.437a8.311,8.311,0,0,1-3.13,6.641q-3.13,2.636-8.646,2.635a14.809,14.809,0,0,1-10.02-3.4l4.144-5.214a8.61,8.61,0,0,0,5.053,1.976,4.679,4.679,0,0,0,3.048-.919,2.925,2.925,0,0,0,1.126-2.374,3.326,3.326,0,0,0-1.056-2.443,3.949,3.949,0,0,0-2.9-1.042Z" transform="translate(-62.556 -265.645)"/><path d="M790.874,441.391v3.293a14.067,14.067,0,0,1,4.39-3.046,12.657,12.657,0,0,1,5.05-1.016,13.038,13.038,0,0,1,9.934,4.419,16.03,16.03,0,0,1,4.089,11.334,15.649,15.649,0,0,1-4.226,11.156,13.31,13.31,0,0,1-10.016,4.486,12.443,12.443,0,0,1-4.8-.92,14.584,14.584,0,0,1-4.417-3v14.079h-7.437v-40.78Zm7.875,6.147a7.82,7.82,0,0,0-5.872,2.415,8.705,8.705,0,0,0-2.332,6.312,8.958,8.958,0,0,0,2.332,6.435,7.754,7.754,0,0,0,5.872,2.457,7.613,7.613,0,0,0,5.777-2.5,9.786,9.786,0,0,0,.042-12.665A7.644,7.644,0,0,0,798.749,447.538Z" transform="translate(-62.556 -265.645)"/><path d="M852.7,458.487H828.632a8.007,8.007,0,0,0,2.785,5.063,8.735,8.735,0,0,0,5.778,1.88,9.986,9.986,0,0,0,7.216-2.935l6.313,2.964a14.905,14.905,0,0,1-5.654,4.953,17.694,17.694,0,0,1-7.821,1.605,15.457,15.457,0,0,1-11.443-4.432,15.082,15.082,0,0,1-4.419-11.1,15.594,15.594,0,0,1,4.405-11.347,14.8,14.8,0,0,1,11.046-4.515,15.346,15.346,0,0,1,11.471,4.515q4.418,4.515,4.418,11.924Zm-7.493-5.9a7.512,7.512,0,0,0-2.927-4.062,8.5,8.5,0,0,0-5.072-1.564,8.972,8.972,0,0,0-5.5,1.756,9.786,9.786,0,0,0-2.749,3.87Z" transform="translate(-62.556 -265.645)"/><path d="M868.477,452.149h11.2V441.391h7.492v29.858h-7.492V458.872h-11.2v12.377h-7.492V441.391h7.492Z" transform="translate(-62.556 -265.645)"/><path d="M900.939,471.249H896.96V441.391h7.3v17.536l15.286-17.536h3.6v29.858h-7.3V454.07Z" transform="translate(-62.556 -265.645)"/><path d="M962.875,458.487H938.807a8,8,0,0,0,2.786,5.063,8.731,8.731,0,0,0,5.776,1.88,9.99,9.99,0,0,0,7.218-2.935l6.312,2.964a14.91,14.91,0,0,1-5.653,4.953,17.7,17.7,0,0,1-7.822,1.605,15.457,15.457,0,0,1-11.443-4.432,15.082,15.082,0,0,1-4.419-11.1,15.59,15.59,0,0,1,4.406-11.347,14.791,14.791,0,0,1,11.045-4.515,15.34,15.34,0,0,1,11.47,4.515q4.419,4.515,4.419,11.924Zm-7.492-5.9a7.524,7.524,0,0,0-2.928-4.062,8.5,8.5,0,0,0-5.072-1.564,8.972,8.972,0,0,0-5.5,1.756,9.786,9.786,0,0,0-2.749,3.87Z" transform="translate(-62.556 -265.645)"/><path d="M272.726,314.654a69.944,69.944,0,1,0,39.338,127.805l-15.026-15.026,18.572-18.571,15,15a69.945,69.945,0,0,0-57.885-109.209Zm0,88.805A18.861,18.861,0,1,1,291.587,384.6,18.858,18.858,0,0,1,272.726,403.459Zm4.59-137.814c-89.659,0-168.607,47.634-214.76,119.926,46.129,72.315,125.1,119.95,214.76,119.95a248.151,248.151,0,0,0,85.614-15.173l-25.784-25.581a100.574,100.574,0,0,1-61.007,20.474c-55.491,0-100.468-44.619-100.468-99.67,0-55.027,44.977-99.647,100.468-99.647s100.468,44.62,100.468,99.647a98.57,98.57,0,0,1-20.613,60.449l33.212,32.948a261.811,261.811,0,0,0,102.821-93.4C445.9,313.279,366.95,265.645,277.316,265.645Z" transform="translate(-62.556 -265.645)" style="fill:#61ac5d"/></svg>